PathFileType	4	(X/Y/Z)	/Users/niels/Desktop/University/Third Semester/Perception and Action/Exam/Gymnastics Motion Tracking/Code for Gym Tracking/Analyzed Data/Webcam_Backflip/id5_5_baseline_Sports2D/id5_5_baseline_Sports2D_px_person00.trc
DataRate	CameraRate	NumFrames	NumMarkers	Units	OrigDataRate	OrigDataStartFrame	OrigNumFrames
29.81132075471698	29.81132075471698	12	22	m	29.81132075471698	39	159
Frame#	Time	Hip			RHip			RKnee			RAnkle			RBigToe			RSmallToe			RHeel			LHip			LKnee			LAnkle			LBigToe			LSmallToe			LHeel			Neck			Head			Nose			RShoulder			RElbow			RWrist			LShoulder			LElbow			LWrist		
		X1	Y1	Z1	X2	Y2	Z2	X3	Y3	Z3	X4	Y4	Z4	X5	Y5	Z5	X6	Y6	Z6	X7	Y7	Z7	X8	Y8	Z8	X9	Y9	Z9	X10	Y10	Z10	X11	Y11	Z11	X12	Y12	Z12	X13	Y13	Z13	X14	Y14	Z14	X15	Y15	Z15	X16	Y16	Z16	X17	Y17	Z17	X18	Y18	Z18	X19	Y19	Z19	X20	Y20	Z20	X21	Y21	Z21	X22	Y22	Z22
39	1.3082278481012657	0.9066388389570608	-0.32670469096173166	0.0	0.9041072246509677	-0.32281563021254894	0.0	0.8132906348242454	-0.3040299950222027	0.0	0.8740680478214374	-0.23653426872624173	0.0	0.8514257740387211	-0.20705781748751087	0.0	0.8609039339554293	-0.20824836022258886	0.0	0.8831885026913753	-0.23264300926923998	0.0	0.907507045343622	-0.3277608201953784	0.0	0.8350936980950243	-0.3072295443030447	0.0	0.8768816098639529	-0.24773300151667862	0.0	0.8541351528096873	-0.2326282072737908	0.0	0.8591608508503366	-0.2364316654726694	0.0	0.8900305613281807	-0.2407802216126386	0.0	0.8466314519909095	-0.4334975538537087	0.0	0.8239262854896874	-0.4849347504879528	0.0	0.8158660830697511	-0.4552245592817483	0.0	0.8508030478574475	-0.40862519440078987	0.0	0.8643467366162702	-0.3387711352925649	0.0	0.8512559888133489	-0.3053220044273386	0.0	0.8544148836457093	-0.4298611498365448	0.0	0.8734153616252621	-0.37784010903852744	0.0	0.8847658578544945	-0.38981615310846746	0.0
40	1.3417721518987342	0.8957398725073608	-0.316968336019838	0.0	0.8902930142053661	-0.3146928993508017	0.0	0.7966471841524121	-0.32901055720871136	0.0	0.8271199554186374	-0.2506035370024628	0.0	0.798722269739328	-0.23511815569593267	0.0	0.8060922218807964	-0.23406423488242717	0.0	0.832618401961475	-0.24258500275246042	0.0	0.9017635201302633	-0.31832634815365907	0.0	0.8275415771801169	-0.32713831199458865	0.0	0.8337498010621949	-0.26369139526127644	0.0	0.8024025250829104	-0.2616511877992593	0.0	0.8109063041094721	-0.26562418524937853	0.0	0.8406719523633088	-0.2516635098763016	0.0	0.8719523123356666	-0.44203350357075055	0.0	0.8634029602513702	-0.5003545165881975	0.0	0.8477683642880035	-0.47525948799139467	0.0	0.8688580278398786	-0.41749888270141544	0.0	0.8616439952076721	-0.34680788530409223	0.0	0.8407350477981849	-0.3214796934330449	0.0	0.879313939382285	-0.43632038972978415	0.0	0.8892463970064574	-0.3808815961832251	0.0	0.898951405871541	-0.4070157120651171	0.0
41	1.3753164556962025	0.8822025482925804	-0.3143383586899225	0.0	0.8741767987856534	-0.31392639901559244	0.0	0.7873416246255448	-0.3587719671392652	0.0	0.7836409833715846	-0.282970327761135	0.0	0.7552131036943496	-0.2852261567868318	0.0	0.7589792577716357	-0.2819422775136262	0.0	0.7841711453702187	-0.2721172237042282	0.0	0.8930058610675687	-0.31581285933816167	0.0	0.824452468678722	-0.3505648886981565	0.0	0.794278813463663	-0.29541275291217206	0.0	0.7583481082433112	-0.3069667737199153	0.0	0.7717758492585252	-0.3106639022114212	0.0	0.7931259893161003	-0.280590282377654	0.0	0.8961466477035336	-0.4436985732261468	0.0	0.9022095863221236	-0.5049043183910247	0.0	0.8812302267663691	-0.48527356693913554	0.0	0.8858244086116747	-0.4221929886365725	0.0	0.8612119936152681	-0.35905913294164477	0.0	0.8350939965652147	-0.3447581868097053	0.0	0.9037451691532642	-0.43622274680920003	0.0	0.9086479639634271	-0.3825219426788976	0.0	0.9211100795594578	-0.41710283035473017	0.0
42	1.4088607594936708	0.8666556434103564	-0.3195983555589763	0.0	0.8567888219643923	-0.32077780768397446	0.0	0.7842455841922276	-0.39136661945520757	0.0	0.7485682059295522	-0.3325136856502749	0.0	0.7257817793955477	-0.35334330377746737	0.0	0.7251979736483035	-0.34825618586641366	0.0	0.7434492064009919	-0.32089312366163586	0.0	0.8809514623516274	-0.32099712741727415	0.0	0.823226225930176	-0.377073695837365	0.0	0.7627307111073167	-0.34139337978558026	0.0	0.7272967771020735	-0.3657746083557898	0.0	0.7463519707662737	-0.36837005541723267	0.0	0.752815833037931	-0.3266216459258815	0.0	0.9160104508760598	-0.4396842676078542	0.0	0.936811203659764	-0.49984357775443694	0.0	0.9117962396742436	-0.48562761726445575	0.0	0.8997448621315378	-0.4230115301835238	0.0	0.8625652885625376	-0.37569842427076294	0.0	0.8340870742513123	-0.375626220498952	0.0	0.9243585229403701	-0.43041686186125416	0.0	0.927919041995411	-0.38420815436313244	0.0	0.9485473182175609	-0.41839481819801444	0.0
43	1.4424050632911392	0.8495244813894576	-0.3327188515829134	0.0	0.8390854501613118	-0.33488679580884534	0.0	0.7852296868997196	-0.4257320261988129	0.0	0.7261171365143873	-0.39596055001024116	0.0	0.7136101958681749	-0.432048927996213	0.0	0.7089265965972292	-0.42623309752048366	0.0	0.7157848800500545	-0.3860736683312182	0.0	0.8651503300326392	-0.33358294275360784	0.0	0.8202792884000051	-0.40771555842052665	0.0	0.7410827220305497	-0.399038458474365	0.0	0.7119062115020671	-0.43405546554448715	0.0	0.7352263312230948	-0.4347235404959078	0.0	0.7237295128559088	-0.3870780527810977	0.0	0.9293349661448614	-0.4323399392532287	0.0	0.9644863596164251	-0.48754675694783617	0.0	0.9357732067230261	-0.47846590684356505	0.0	0.9092149059925526	-0.4212818554481178	0.0	0.8644519644060763	-0.39637510854238384	0.0	0.8380973582458279	-0.41290659979191247	0.0	0.938188966332264	-0.4209095642927867	0.0	0.9427166763586241	-0.3864007948367646	0.0	0.975506584412181	-0.4120937890082087	0.0
44	1.4759493670886075	0.8315991856212318	-0.3536328276766699	0.0	0.8222104155702483	-0.3560353662918667	0.0	0.7879294848507337	-0.4616540468346142	0.0	0.718265100415336	-0.4679481471785128	0.0	0.7185604579705521	-0.5126757223176729	0.0	0.7107187290079441	-0.5074883638613142	0.0	0.7042737971034174	-0.4620307371335985	0.0	0.8458858449594843	-0.3533971204957709	0.0	0.8128205208573942	-0.44364878767690313	0.0	0.7284648139971283	-0.4644036069518153	0.0	0.7107542158319353	-0.5061953913753161	0.0	0.733942989251992	-0.504594559462865	0.0	0.7068145145170542	-0.4572652338437881	0.0	0.935039289571619	-0.42450920441935314	0.0	0.9831327102141735	-0.4710004775911299	0.0	0.9509197365282238	-0.46713235585294666	0.0	0.9134817711906105	-0.418998577345313	0.0	0.8666736927453672	-0.4195393057437339	0.0	0.8488611394011139	-0.4522273494475666	0.0	0.9432756504179403	-0.4105538081710733	0.0	0.9496013057810407	-0.3892265605419202	0.0	0.9951805704567932	-0.40289102226061946	0.0
45	1.5094936708860758	0.8143391295424239	-0.38244895237859716	0.0	0.8073897900561748	-0.38440227128768006	0.0	0.790704682956865	-0.49950128006855526	0.0	0.7237665302951514	-0.5421576905329636	0.0	0.7365700115755649	-0.5883179563364388	0.0	0.7267157613562358	-0.5847991574941989	0.0	0.7082067347747358	-0.5415635684149105	0.0	0.8248815568808664	-0.3808382097025599	0.0	0.8013945194850888	-0.48449641094414414	0.0	0.722760060020459	-0.5327846428092883	0.0	0.7191837159339872	-0.576625989938884	0.0	0.7365525017407987	-0.5729889131825888	0.0	0.7004675812996112	-0.531269702100272	0.0	0.9330027195993834	-0.4189680581293406	0.0	0.9913443741480824	-0.45333244511416243	0.0	0.9566344689283469	-0.45535809452686427	0.0	0.9124096342438642	-0.4183375729430288	0.0	0.8708096761311118	-0.44268001895709014	0.0	0.8677365352688009	-0.4868334666093342	0.0	0.9389966781673069	-0.4026581436456837	0.0	0.9476831827334881	-0.3944377235285931	0.0	1.0037271973868545	-0.39739142806479905	0.0
46	1.5430379746835443	0.7994084343951008	-0.418685685037114	0.0	0.7955295664434912	-0.41984937427034424	0.0	0.793155540913017	-0.5396646877363102	0.0	0.7383866691759846	-0.6130124963454364	0.0	0.7609700380778283	-0.6552864093833292	0.0	0.7501074063390557	-0.6538746495183847	0.0	0.72308395260519	-0.6178961187185469	0.0	0.8048759819620458	-0.41583434817827447	0.0	0.7891789069673701	-0.5287227285241916	0.0	0.7220690300809577	-0.5997321790375698	0.0	0.7317344191135413	-0.6416495838474258	0.0	0.7398833910133019	-0.6363458280609845	0.0	0.7018509544956077	-0.6034093806475576	0.0	0.9238682623402057	-0.4180111363781394	0.0	0.9887267722857678	-0.4374945828509868	0.0	0.9536527455483896	-0.4463653790961365	0.0	0.9062424889009563	-0.4213397754280054	0.0	0.877969499429956	-0.4632637713473457	0.0	0.8930201179661219	-0.5106480730327875	0.0	0.9261589991327449	-0.40040918248788554	0.0	0.939512822575599	-0.40496843073234295	0.0	1.0017668381736538	-0.4010356867762571	0.0
47	1.5765822784810126	0.7879168924738231	-0.46064804186407976	0.0	0.786961834761154	-0.46109001670404676	0.0	0.7958070164418285	-0.5819571467306227	0.0	0.7563548172818283	-0.6768497554791015	0.0	0.7849062929317986	-0.7128368729264473	0.0	0.7737681708481937	-0.7134339861795251	0.0	0.7423210214523656	-0.6862299449405175	0.0	0.7883038671057171	-0.4569492159432184	0.0	0.7791909289627669	-0.5747029494486255	0.0	0.7245505875036625	-0.6618507997325017	0.0	0.7441367989154302	-0.6998691229230359	0.0	0.7431783935860826	-0.6928811015951598	0.0	0.7075424400022688	-0.669469411434005	0.0	0.9089089768806875	-0.4231528499958724	0.0	0.9760538916520786	-0.426071654311498	0.0	0.9434371746173087	-0.44233003727519393	0.0	0.8953575115065734	-0.42950620003398704	0.0	0.886737984239079	-0.4794312016614664	0.0	0.9194628544619711	-0.5206696766156154	0.0	0.906851396052056	-0.4061690527311117	0.0	0.9288866687065283	-0.42219498934652505	0.0	0.992586680853624	-0.4149824439151422	0.0
48	1.610126582278481	0.7800499829980256	-0.5055707228924078	0.0	0.7813906390807895	-0.5055946057298074	0.0	0.7992986952070719	-0.6252268572676315	0.0	0.7724249908472051	-0.7319316056028726	0.0	0.8036011354222167	-0.7620069845550027	0.0	0.7926546771366605	-0.764123110229897	0.0	0.7597721540298806	-0.7440986089292219	0.0	0.7763593010803472	-0.501535476344893	0.0	0.7728364962724471	-0.6207244958609441	0.0	0.7281262878674355	-0.7169683890870303	0.0	0.7540245944339927	-0.7514531489066539	0.0	0.7459329030367063	-0.7422027803414037	0.0	0.714183106520874	-0.7269575639027843	0.0	0.8898936251130254	-0.4348241459482101	0.0	0.9551557465461377	-0.42096655096146957	0.0	0.9277275154844165	-0.4443303469068633	0.0	0.880284085015903	-0.4432648750414122	0.0	0.8938941170471777	-0.4903581976272352	0.0	0.9404123369770759	-0.5174370619137867	0.0	0.8840566251617669	-0.4207540554949109	0.0	0.9179609893278485	-0.44406287917593756	0.0	0.9797960718294267	-0.4346651931045581	0.0
49	1.6436708860759492	0.7751810249752192	-0.5500746216826362	0.0	0.7779394082199019	-0.5500177662779482	0.0	0.8036638667761972	-0.6672255442664351	0.0	0.7834666494868286	-0.777598310444842	0.0	0.8152789309728317	-0.8041086438983348	0.0	0.8047717975618462	-0.8069843167191606	0.0	0.7716704186287416	-0.7907269635647163	0.0	0.7690120548195484	-0.5462790611614365	0.0	0.7699588749639646	-0.6645703729838887	0.0	0.7309831509099717	-0.7636815654616421	0.0	0.7605889005645157	-0.7968782748238481	0.0	0.7476280990059114	-0.7846078259768173	0.0	0.7193348375517344	-0.7744967141537438	0.0	0.8688931011324357	-0.45212846021574093	0.0	0.9287410684092416	-0.42292524129166914	0.0	0.9084542106778446	-0.45235616325435096	0.0	0.8619271863582401	-0.4616719585128154	0.0	0.896328785875828	-0.4965154335645214	0.0	0.9506769242148491	-0.5044050752058223	0.0	0.8610562653847589	-0.4429912405594952	0.0	0.9073163866366643	-0.46642338644106823	0.0	0.9657845050711001	-0.45288684090160336	0.0
50	1.6772151898734176	0.772225226562197	-0.5905852341179321	0.0	0.7754129296547742	-0.590687774204285	0.0	0.8082187365941433	-0.7048078512864854	0.0	0.78885056662626	-0.8134768164523086	0.0	0.820568705542716	-0.8392831930979551	0.0	0.8105903797573331	-0.8421217469505164	0.0	0.7771155034722821	-0.8261838054959614	0.0	0.7654074704129551	-0.5876020187325453	0.0	0.7694717705229827	-0.7034489028276764	0.0	0.7321322567470072	-0.8009515298156388	0.0	0.7637852856677761	-0.8356364024261008	0.0	0.7481451704867201	-0.8203674848521832	0.0	0.7218641238294156	-0.8113458433063079	0.0	0.8479741984848529	-0.4728008286418765	0.0	0.9001636086627584	-0.4310463511539304	0.0	0.8877315834127295	-0.46510976351938904	0.0	0.8417490623234388	-0.4824715690385166	0.0	0.892453336638041	-0.49949744513889055	0.0	0.9485328749091582	-0.4867966572889889	0.0	0.8406231733566968	-0.4697258398457048	0.0	0.8970528902521926	-0.4860787112826558	0.0	0.9514689938136351	-0.46542866871299243	0.0
